<mxfile host="app.diagrams.net" modified="2023-09-12T18:47:37.936Z" agent="Mozilla/5.0 (Windows NT 10.0; Win64; x64) AppleWebKit/537.36 (KHTML, like Gecko) Chrome/116.0.0.0 Safari/537.36 Edg/116.0.1938.54" etag="F_2L0AnwYSkVSlAOBCKr" version="21.7.2" type="github">
  <diagram name="Page-1" id="uYiU1MgVdein8eoGloPt">
    <mxGraphModel dx="2099" dy="1186" grid="1" gridSize="10" guides="1" tooltips="1" connect="1" arrows="1" fold="1" page="1" pageScale="1" pageWidth="850" pageHeight="1100" math="0" shadow="0">
      <root>
        <mxCell id="0" />
        <mxCell id="1" parent="0" />
        <mxCell id="XkNLfimdaJcu2J3mgPDF-1" value="" style="swimlane;startSize=0;" parent="1" vertex="1">
          <mxGeometry x="190" y="50" width="420" height="470" as="geometry" />
        </mxCell>
        <mxCell id="XkNLfimdaJcu2J3mgPDF-8" value="" style="group" parent="XkNLfimdaJcu2J3mgPDF-1" vertex="1" connectable="0">
          <mxGeometry x="105.00000000000001" y="20" width="51.97000000000001" height="330" as="geometry" />
        </mxCell>
        <mxCell id="XkNLfimdaJcu2J3mgPDF-7" value="10.127.0.5" style="verticalLabelPosition=bottom;html=1;verticalAlign=top;strokeWidth=1;align=center;outlineConnect=0;dashed=0;outlineConnect=0;shape=mxgraph.aws3d.oracleDataCenter;fillColor=#ffffff;strokeColor=#5E5E5E;aspect=fixed;container=0;" parent="XkNLfimdaJcu2J3mgPDF-8" vertex="1">
          <mxGeometry y="270" width="51.97" height="60" as="geometry" />
        </mxCell>
        <mxCell id="XkNLfimdaJcu2J3mgPDF-2" value="10.186.48.20" style="verticalLabelPosition=bottom;html=1;verticalAlign=top;strokeWidth=1;align=center;outlineConnect=0;dashed=0;outlineConnect=0;shape=mxgraph.aws3d.oracleDataCenter;fillColor=#ffffff;strokeColor=#5E5E5E;aspect=fixed;container=0;" parent="XkNLfimdaJcu2J3mgPDF-8" vertex="1">
          <mxGeometry y="190" width="51.97" height="60" as="geometry" />
        </mxCell>
        <mxCell id="XkNLfimdaJcu2J3mgPDF-4" value="10.186.60.30&amp;nbsp;" style="verticalLabelPosition=bottom;html=1;verticalAlign=top;strokeWidth=1;align=center;outlineConnect=0;dashed=0;outlineConnect=0;shape=mxgraph.aws3d.oracleDataCenter;fillColor=#ffffff;strokeColor=#5E5E5E;aspect=fixed;container=0;" parent="XkNLfimdaJcu2J3mgPDF-8" vertex="1">
          <mxGeometry y="100" width="51.97" height="60" as="geometry" />
        </mxCell>
        <mxCell id="XkNLfimdaJcu2J3mgPDF-5" value="10.186.60.29" style="verticalLabelPosition=bottom;html=1;verticalAlign=top;strokeWidth=1;align=center;outlineConnect=0;dashed=0;outlineConnect=0;shape=mxgraph.aws3d.oracleDataCenter;fillColor=#ffffff;strokeColor=#5E5E5E;aspect=fixed;container=0;" parent="XkNLfimdaJcu2J3mgPDF-8" vertex="1">
          <mxGeometry width="51.97" height="60" as="geometry" />
        </mxCell>
        <mxCell id="XkNLfimdaJcu2J3mgPDF-30" value="" style="group" parent="XkNLfimdaJcu2J3mgPDF-1" vertex="1" connectable="0">
          <mxGeometry x="250" y="20" width="51.97000000000001" height="330" as="geometry" />
        </mxCell>
        <mxCell id="XkNLfimdaJcu2J3mgPDF-31" value="10.8.11.30" style="verticalLabelPosition=bottom;html=1;verticalAlign=top;strokeWidth=1;align=center;outlineConnect=0;dashed=0;outlineConnect=0;shape=mxgraph.aws3d.oracleDataCenter;fillColor=#ffffff;strokeColor=#5E5E5E;aspect=fixed;container=0;" parent="XkNLfimdaJcu2J3mgPDF-30" vertex="1">
          <mxGeometry y="270" width="51.97" height="60" as="geometry" />
        </mxCell>
        <mxCell id="XkNLfimdaJcu2J3mgPDF-32" value="10.9.14.206" style="verticalLabelPosition=bottom;html=1;verticalAlign=top;strokeWidth=1;align=center;outlineConnect=0;dashed=0;outlineConnect=0;shape=mxgraph.aws3d.oracleDataCenter;fillColor=#ffffff;strokeColor=#5E5E5E;aspect=fixed;container=0;" parent="XkNLfimdaJcu2J3mgPDF-30" vertex="1">
          <mxGeometry y="190" width="51.97" height="60" as="geometry" />
        </mxCell>
        <mxCell id="XkNLfimdaJcu2J3mgPDF-33" value="10.62.128.138" style="verticalLabelPosition=bottom;html=1;verticalAlign=top;strokeWidth=1;align=center;outlineConnect=0;dashed=0;outlineConnect=0;shape=mxgraph.aws3d.oracleDataCenter;fillColor=#ffffff;strokeColor=#5E5E5E;aspect=fixed;container=0;" parent="XkNLfimdaJcu2J3mgPDF-30" vertex="1">
          <mxGeometry y="100" width="51.97" height="60" as="geometry" />
        </mxCell>
        <mxCell id="XkNLfimdaJcu2J3mgPDF-34" value="10.9.17.56" style="verticalLabelPosition=bottom;html=1;verticalAlign=top;strokeWidth=1;align=center;outlineConnect=0;dashed=0;outlineConnect=0;shape=mxgraph.aws3d.oracleDataCenter;fillColor=#ffffff;strokeColor=#5E5E5E;aspect=fixed;container=0;" parent="XkNLfimdaJcu2J3mgPDF-30" vertex="1">
          <mxGeometry width="51.97" height="60" as="geometry" />
        </mxCell>
        <mxCell id="XkNLfimdaJcu2J3mgPDF-47" value="10.8.21.49" style="verticalLabelPosition=bottom;html=1;verticalAlign=top;strokeWidth=1;align=center;outlineConnect=0;dashed=0;outlineConnect=0;shape=mxgraph.aws3d.oracleDataCenter;fillColor=#ffffff;strokeColor=#5E5E5E;aspect=fixed;container=0;" parent="XkNLfimdaJcu2J3mgPDF-1" vertex="1">
          <mxGeometry x="250" y="380" width="51.97" height="60" as="geometry" />
        </mxCell>
        <mxCell id="XkNLfimdaJcu2J3mgPDF-48" value="10.234.240.215" style="verticalLabelPosition=bottom;html=1;verticalAlign=top;strokeWidth=1;align=center;outlineConnect=0;dashed=0;outlineConnect=0;shape=mxgraph.aws3d.oracleDataCenter;fillColor=#ffffff;strokeColor=#5E5E5E;aspect=fixed;container=0;" parent="XkNLfimdaJcu2J3mgPDF-1" vertex="1">
          <mxGeometry x="105" y="380" width="51.97" height="60" as="geometry" />
        </mxCell>
        <mxCell id="r8NpnwUyI057g8_E0qnx-23" style="edgeStyle=orthogonalEdgeStyle;rounded=0;orthogonalLoop=1;jettySize=auto;html=1;" edge="1" parent="1" source="XkNLfimdaJcu2J3mgPDF-10">
          <mxGeometry relative="1" as="geometry">
            <mxPoint x="420" y="680" as="targetPoint" />
          </mxGeometry>
        </mxCell>
        <mxCell id="XkNLfimdaJcu2J3mgPDF-10" value="" style="swimlane;startSize=0;" parent="1" vertex="1">
          <mxGeometry x="790" y="40" width="450" height="430" as="geometry" />
        </mxCell>
        <mxCell id="XkNLfimdaJcu2J3mgPDF-16" value="10.57.8.194&lt;br&gt;" style="image;sketch=0;aspect=fixed;html=1;points=[];align=center;fontSize=12;image=img/lib/mscae/VM_Linux.svg;" parent="XkNLfimdaJcu2J3mgPDF-10" vertex="1">
          <mxGeometry x="400" width="50" height="46" as="geometry" />
        </mxCell>
        <mxCell id="r8NpnwUyI057g8_E0qnx-6" value="" style="edgeStyle=orthogonalEdgeStyle;rounded=0;orthogonalLoop=1;jettySize=auto;html=1;" edge="1" parent="XkNLfimdaJcu2J3mgPDF-10" source="XkNLfimdaJcu2J3mgPDF-22" target="XkNLfimdaJcu2J3mgPDF-25">
          <mxGeometry relative="1" as="geometry" />
        </mxCell>
        <mxCell id="r8NpnwUyI057g8_E0qnx-21" style="edgeStyle=orthogonalEdgeStyle;rounded=0;orthogonalLoop=1;jettySize=auto;html=1;" edge="1" parent="XkNLfimdaJcu2J3mgPDF-10" source="r8NpnwUyI057g8_E0qnx-1">
          <mxGeometry relative="1" as="geometry">
            <mxPoint x="-370" y="570" as="targetPoint" />
          </mxGeometry>
        </mxCell>
        <mxCell id="r8NpnwUyI057g8_E0qnx-1" value="airflow&lt;br&gt;" style="sketch=0;points=[[0,0,0],[0.25,0,0],[0.5,0,0],[0.75,0,0],[1,0,0],[0,1,0],[0.25,1,0],[0.5,1,0],[0.75,1,0],[1,1,0],[0,0.25,0],[0,0.5,0],[0,0.75,0],[1,0.25,0],[1,0.5,0],[1,0.75,0]];outlineConnect=0;fontColor=#232F3E;gradientColor=#FF4F8B;gradientDirection=north;fillColor=#BC1356;strokeColor=#ffffff;dashed=0;verticalLabelPosition=bottom;verticalAlign=top;align=center;html=1;fontSize=12;fontStyle=0;aspect=fixed;shape=mxgraph.aws4.resourceIcon;resIcon=mxgraph.aws4.managed_workflows_for_apache_airflow;" vertex="1" parent="XkNLfimdaJcu2J3mgPDF-10">
          <mxGeometry x="7" y="175" width="78" height="78" as="geometry" />
        </mxCell>
        <mxCell id="XkNLfimdaJcu2J3mgPDF-25" value="" style="verticalLabelPosition=bottom;html=1;verticalAlign=top;align=center;strokeColor=none;fillColor=#00BEF2;shape=mxgraph.azure.script_file;pointerEvents=1;" parent="XkNLfimdaJcu2J3mgPDF-10" vertex="1">
          <mxGeometry x="320" y="210" width="40" height="50" as="geometry" />
        </mxCell>
        <mxCell id="r8NpnwUyI057g8_E0qnx-8" value="" style="edgeStyle=orthogonalEdgeStyle;rounded=0;orthogonalLoop=1;jettySize=auto;html=1;" edge="1" parent="XkNLfimdaJcu2J3mgPDF-10" source="r8NpnwUyI057g8_E0qnx-1" target="XkNLfimdaJcu2J3mgPDF-22">
          <mxGeometry relative="1" as="geometry">
            <mxPoint x="885" y="254" as="sourcePoint" />
            <mxPoint x="1064" y="400" as="targetPoint" />
          </mxGeometry>
        </mxCell>
        <mxCell id="XkNLfimdaJcu2J3mgPDF-22" value="NYSAP docker images&lt;br&gt;" style="image;sketch=0;aspect=fixed;html=1;points=[];align=center;fontSize=12;image=img/lib/mscae/Docker.svg;" parent="XkNLfimdaJcu2J3mgPDF-10" vertex="1">
          <mxGeometry x="120" y="188.76999999999998" width="61.25" height="50.23" as="geometry" />
        </mxCell>
        <mxCell id="r8NpnwUyI057g8_E0qnx-13" value="dmadeus2d02-sql.database.windows.net" style="verticalLabelPosition=bottom;html=1;verticalAlign=top;align=center;strokeColor=none;fillColor=#00BEF2;shape=mxgraph.azure.sql_database_sql_azure;" vertex="1" parent="1">
          <mxGeometry x="1400" y="70" width="47.5" height="50" as="geometry" />
        </mxCell>
        <mxCell id="r8NpnwUyI057g8_E0qnx-14" style="edgeStyle=orthogonalEdgeStyle;rounded=0;orthogonalLoop=1;jettySize=auto;html=1;entryX=0.358;entryY=0.58;entryDx=0;entryDy=0;entryPerimeter=0;" edge="1" parent="1" source="XkNLfimdaJcu2J3mgPDF-25" target="r8NpnwUyI057g8_E0qnx-13">
          <mxGeometry relative="1" as="geometry" />
        </mxCell>
        <mxCell id="r8NpnwUyI057g8_E0qnx-15" value="" style="swimlane;startSize=0;" vertex="1" parent="1">
          <mxGeometry x="1440" y="280" width="200" height="200" as="geometry" />
        </mxCell>
        <mxCell id="r8NpnwUyI057g8_E0qnx-17" value="10.57.12.88" style="verticalLabelPosition=bottom;html=1;verticalAlign=top;align=center;strokeColor=none;fillColor=#00BEF2;shape=mxgraph.azure.sql_database_sql_azure;" vertex="1" parent="r8NpnwUyI057g8_E0qnx-15">
          <mxGeometry x="80" y="100" width="47.5" height="50" as="geometry" />
        </mxCell>
        <mxCell id="r8NpnwUyI057g8_E0qnx-16" style="edgeStyle=orthogonalEdgeStyle;rounded=0;orthogonalLoop=1;jettySize=auto;html=1;entryX=-0.015;entryY=0.32;entryDx=0;entryDy=0;entryPerimeter=0;" edge="1" parent="1" source="XkNLfimdaJcu2J3mgPDF-25" target="r8NpnwUyI057g8_E0qnx-15">
          <mxGeometry relative="1" as="geometry" />
        </mxCell>
        <mxCell id="r8NpnwUyI057g8_E0qnx-19" value="ngr01e08wp447.ngrid.fit" style="image;sketch=0;aspect=fixed;html=1;points=[];align=center;fontSize=12;image=img/lib/mscae/SAP_HANA_on_Azure.svg;" vertex="1" parent="1">
          <mxGeometry x="347" y="580" width="50" height="25" as="geometry" />
        </mxCell>
        <mxCell id="r8NpnwUyI057g8_E0qnx-20" style="edgeStyle=orthogonalEdgeStyle;rounded=0;orthogonalLoop=1;jettySize=auto;html=1;" edge="1" parent="1" source="r8NpnwUyI057g8_E0qnx-1" target="XkNLfimdaJcu2J3mgPDF-1">
          <mxGeometry relative="1" as="geometry" />
        </mxCell>
        <mxCell id="r8NpnwUyI057g8_E0qnx-22" value="DOT" style="sketch=0;html=1;dashed=0;whitespace=wrap;fillColor=#2875E2;strokeColor=#ffffff;points=[[0.005,0.63,0],[0.1,0.2,0],[0.9,0.2,0],[0.5,0,0],[0.995,0.63,0],[0.72,0.99,0],[0.5,1,0],[0.28,0.99,0]];verticalLabelPosition=bottom;align=center;verticalAlign=top;shape=mxgraph.kubernetes.icon;prIcon=api" vertex="1" parent="1">
          <mxGeometry x="340" y="650" width="50" height="48" as="geometry" />
        </mxCell>
      </root>
    </mxGraphModel>
  </diagram>
</mxfile>
